<?xml version="1.0" encoding="utf-8"?>
<!-- Generator: Adobe Illustrator 23.0.0, SVG Export Plug-In . SVG Version: 6.00 Build 0)  -->
<svg version="1.1" baseProfile="basic" xmlns="http://www.w3.org/2000/svg" xmlns:xlink="http://www.w3.org/1999/xlink" x="0px"
	 y="0px" viewBox="0 0 321.6 150.72" xml:space="preserve">
<style type="text/css">
	.st0{display:none;}
	.st1{display:inline;fill:#37D13E;}
	.st2{fill:#1F418B;}
</style>
<g id="Background" class="st0">
	<rect x="0.86" y="1.05" class="st1" width="321.6" height="150.72"/>
</g>
<g id="TINASOFT">
	<g id="O_1_">
		<g>
			<path class="st2" d="M192.59,63.36c-1.1,0-2,0.9-2,2v27.19c0,1.1,0.9,2,2,2h27.19c1.1,0,2-0.9,2-2V65.36c0-1.1-0.9-2-2-2H192.59z
				 M216.46,87.24c0,1.1-0.9,2-2,2H197.9c-1.1,0-2-0.9-2-2V70.68c0-1.1,0.9-2,2-2h16.56c1.1,0,2,0.9,2,2V87.24z"/>
		</g>
		<g>
			<polygon class="st2" points="192.59,65.14 185.12,65.14 185.12,69.11 194.08,69.11 194.08,66.85 196.57,66.85 196.57,57.9 
				192.59,57.9 			"/>
			<rect x="200.7" y="57.9" class="st2" width="3.97" height="8.95"/>
			<rect x="208.49" y="57.9" class="st2" width="3.97" height="8.95"/>
			<rect x="208.49" y="91.06" class="st2" width="3.97" height="8.95"/>
			<rect x="200.7" y="91.06" class="st2" width="3.97" height="8.95"/>
			<polygon class="st2" points="219.71,65.14 219.71,57.9 215.74,57.9 215.74,66.85 218.29,66.85 218.29,69.11 227.24,69.11 
				227.24,65.14 			"/>
			<rect x="218.29" y="72.39" class="st2" width="8.95" height="3.97"/>
			<rect x="218.29" y="80.41" class="st2" width="8.95" height="3.97"/>
			<polygon class="st2" points="218.29,91.06 215.74,91.06 215.74,100.02 219.71,100.02 219.71,92.41 227.24,92.41 227.24,88.44 
				218.29,88.44 			"/>
			<polygon class="st2" points="194.08,88.44 185.12,88.44 185.12,92.41 192.59,92.41 192.59,100.02 196.57,100.02 196.57,91.06 
				194.08,91.06 			"/>
			<rect x="185.12" y="80.41" class="st2" width="8.95" height="3.97"/>
			<rect x="185.12" y="72.39" class="st2" width="8.95" height="3.97"/>
		</g>
	</g>
	<g id="TINAS_FT">
		<g>
			<g>
				<path class="st2" d="M67.78,58.06v42.12H62.3V58.06H67.78z"/>
				<path class="st2" d="M77.35,100.18V58.06h5.98l13.6,21.31c3.15,4.94,5.6,9.37,7.62,13.69l0.13-0.06
					c-0.5-5.62-0.63-10.75-0.63-17.31V58.06h5.16v42.12h-5.54L90.2,78.81c-2.96-4.69-5.79-9.5-7.93-14.06l-0.19,0.06
					c0.31,5.31,0.44,10.37,0.44,17.37v18H77.35z"/>
				<path class="st2" d="M125.65,86.93l-4.41,13.25h-5.67L130,58.06h6.61l14.48,42.12h-5.86l-4.53-13.25H125.65z M139.57,82.68
					l-4.16-12.12c-0.94-2.75-1.57-5.25-2.2-7.69h-0.13c-0.63,2.5-1.32,5.06-2.14,7.62l-4.16,12.18H139.57z"/>
				<path class="st2" d="M156.57,93.56c2.46,1.5,6.04,2.75,9.82,2.75c5.6,0,8.88-2.94,8.88-7.19c0-3.94-2.27-6.19-8-8.37
					c-6.93-2.44-11.21-6-11.21-11.93c0-6.56,5.48-11.44,13.73-11.44c4.34,0,7.49,1,9.38,2.06l-1.51,4.44c-1.38-0.75-4.22-2-8.06-2
					c-5.79,0-8,3.44-8,6.31c0,3.94,2.58,5.87,8.44,8.12c7.18,2.75,10.83,6.19,10.83,12.37c0,6.5-4.85,12.12-14.86,12.12
					c-4.09,0-8.56-1.19-10.83-2.69L156.57,93.56z"/>
			</g>
			<g>
				<path class="st2" d="M231.3,58.06h22.86v4.56h-17.38v14h16.06v4.5h-16.06v19.06h-5.48V58.06z"/>
				<path class="st2" d="M270.03,62.69h-12.91v-4.62h31.42v4.62h-12.97v37.49h-5.54V62.69z"/>
			</g>
		</g>
		<polygon class="st2" points="59.54,47.88 43.48,47.88 42.05,47.88 39.12,47.88 39.12,100.45 34.58,100.45 34.58,47.88 
			33.15,47.88 32.41,47.88 14.9,47.88 14.9,50.5 32.41,50.5 32.41,102.12 33.76,102.12 34.58,102.12 39.12,102.12 43.48,102.12 
			43.48,100.45 43.48,50.53 59.54,50.53 		"/>
	</g>
</g>
<g id="Domain">
	<g id="_x2E_vn">
		<path class="st2" d="M279.6,98.71c0-0.87,0.59-1.49,1.42-1.49s1.39,0.61,1.39,1.49c0,0.85-0.54,1.49-1.41,1.49
			C280.17,100.2,279.6,99.56,279.6,98.71z"/>
		<path class="st2" d="M285.77,88.53l2.24,6.41c0.38,1.04,0.68,1.98,0.92,2.92H289c0.26-0.94,0.59-1.89,0.97-2.92l2.22-6.41h2.17
			l-4.48,11.41h-1.98l-4.34-11.41H285.77z"/>
		<path class="st2" d="M296.31,91.62c0-1.18-0.02-2.15-0.09-3.09h1.84l0.12,1.89h0.05c0.57-1.08,1.89-2.15,3.77-2.15
			c1.58,0,4.03,0.94,4.03,4.86v6.81h-2.07v-6.58c0-1.84-0.68-3.37-2.64-3.37c-1.37,0-2.43,0.97-2.78,2.12
			c-0.09,0.26-0.14,0.61-0.14,0.97v6.86h-2.08V91.62z"/>
	</g>
</g>
</svg>
